<?xml version="1.0" encoding="UTF-8" standalone="no"?>
<svg
   xmlns:dc="http://purl.org/dc/elements/1.1/"
   xmlns:cc="http://creativecommons.org/ns#"
   xmlns:rdf="http://www.w3.org/1999/02/22-rdf-syntax-ns#"
   xmlns:svg="http://www.w3.org/2000/svg"
   xmlns="http://www.w3.org/2000/svg"
   xmlns:sodipodi="http://sodipodi.sourceforge.net/DTD/sodipodi-0.dtd"
   xmlns:inkscape="http://www.inkscape.org/namespaces/inkscape"
   version="1.1"
   x="0px"
   y="0px"
   viewBox="0 0 2480 1200"
   enable-background="new 0 0 100 100"
   xml:space="preserve"
   id="svg2"
   inkscape:version="0.91 r13725"
   sodipodi:docname="unconsciousbias_splash.svg"
   width="2480"
   height="1200"
   inkscape:export-filename="C:\projects\UnconsciousBias\UnconsciousBias\Assets\SplashScreen.scale-100.png"
   inkscape:export-xdpi="22.5"
   inkscape:export-ydpi="22.5"><metadata
     id="metadata16"><rdf:RDF><cc:Work
         rdf:about=""><dc:format>image/svg+xml</dc:format><dc:type
           rdf:resource="http://purl.org/dc/dcmitype/StillImage" /><dc:title></dc:title></cc:Work></rdf:RDF></metadata><defs
     id="defs14" /><sodipodi:namedview
     pagecolor="#ffffff"
     bordercolor="#666666"
     borderopacity="1"
     objecttolerance="10"
     gridtolerance="10"
     guidetolerance="10"
     inkscape:pageopacity="0"
     inkscape:pageshadow="2"
     inkscape:window-width="1920"
     inkscape:window-height="1017"
     id="namedview12"
     showgrid="false"
     inkscape:zoom="0.3337544"
     inkscape:cx="1202.5172"
     inkscape:cy="519.17643"
     inkscape:window-x="-8"
     inkscape:window-y="-8"
     inkscape:window-maximized="1"
     inkscape:current-layer="svg2" /><g
     id="g4"
     transform="matrix(11.741942,0,0,14.178006,693.77729,-221.80339)"><path
       d="M 94.647,41.966 84.06,46.969 84.044,46.953 c 0,0 -9.491,0.333 -17.38,3.682 -2.386,1.015 -4.654,2.317 -6.677,3.65 L 52.542,31.599 C 52.529,31.566 52.19,30.734 51.379,30.566 L 34.666,28.16 34.67,16.976 l -0.025,-0.202 -4.696,0 0,10.489 -16.507,-2.543 c -0.912,0 -1.325,1.034 -1.343,1.081 L 0.708,60.376 c -0.052,0.16 -0.067,0.341 -0.021,0.692 0.028,0.168 0.09,0.336 0.245,0.607 0.095,0.131 0.217,0.25 0.333,0.333 0.049,0.058 4.995,5.633 12.181,5.633 7.324,0 12.13,-5.579 12.144,-5.603 0.145,-0.102 0.266,-0.222 0.429,-0.459 0.103,-0.187 0.165,-0.35 0.217,-0.651 0.013,-0.218 -0.003,-0.393 -0.088,-0.646 L 15.7,28.12 l 14.249,2.016 0,47.67 -9.269,0 0,4.699 23.022,0 0,-4.699 -9.062,0 0.026,-46.775 14.514,2.227 -10.765,32.907 c -0.051,0.159 -0.067,0.34 -0.021,0.69 0.028,0.169 0.09,0.338 0.246,0.607 0.095,0.132 0.217,0.252 0.333,0.334 0.049,0.058 4.996,5.634 12.182,5.634 7.323,0 12.129,-5.58 12.143,-5.604 0.145,-0.103 0.266,-0.221 0.429,-0.459 0.104,-0.187 0.163,-0.35 0.218,-0.65 0.013,-0.217 -0.003,-0.394 -0.089,-0.646 l -2.259,-6.885 c 2.897,-1.215 5.309,-1.732 5.309,-1.732 0,0 -2.874,5.003 -1.777,8.521 0.363,1.196 1.139,1.813 1.775,2.124 0.292,-1.416 0.898,-3.648 2.084,-5.564 1.383,-2.234 2.533,-3.084 2.582,-3.118 0.377,-0.271 0.885,-0.152 1.13,0.282 0.247,0.437 0.137,1.01 -0.237,1.281 -0.021,0.023 -0.957,0.742 -2.133,2.639 -1.344,2.173 -1.85,4.915 -1.984,5.828 0.281,0.554 0.713,1.219 1.323,1.673 0.366,0.279 0.726,0.36 1.046,0.354 0.21,-1.225 0.597,-2.79 1.301,-4.154 1.01,-1.959 1.896,-2.678 1.994,-2.755 0.374,-0.294 0.884,-0.181 1.137,0.24 0.256,0.424 0.168,1 -0.196,1.281 -0.028,0.029 -0.708,0.615 -1.521,2.189 -0.532,1.038 -0.858,2.255 -1.05,3.275 0.321,0.537 0.827,1.211 1.411,1.391 C 76.05,73.634 77.26,71.3 77.26,71.3 l 1.519,-2.977 c 0,0 2.303,0.271 3.788,-0.474 4.232,-1.839 8.112,-8.459 8.841,-9.774 l 7.86,-3.711 -4.621,-12.398 z m -72.034,17.348 -18.331,0 9.165,-28.731 9.166,28.731 z m 19.375,5.788 9.166,-28.73 6.283,19.695 c -3.445,2.55 -5.697,4.779 -5.697,4.779 0,0 -1.323,1.513 -0.653,2.455 0.868,1.241 1.845,0.411 2.476,0.083 0.625,-0.315 2.215,-1.397 5.279,-2.915 l 1.479,4.633 -18.333,0 z"
       id="path6"
       inkscape:connector-curvature="0" /></g><text
     x="1086.7129"
     y="971.30823"
     font-size="5px"
     font-weight="bold"
     id="text8-5"
     style="font-style:normal;font-variant:normal;font-weight:normal;font-stretch:normal;font-size:66.81552887px;line-height:125%;font-family:'Helvetica Neue', Helvetica, Arial-Unicode, Arial, Sans-serif;-inkscape-font-specification:'Helvetica Neue, Helvetica, Arial-Unicode, Arial, Sans-serif, Normal';text-align:start;writing-mode:lr-tb;text-anchor:start;fill:#000000"
     transform="scale(0.91191118,1.096598)"
     sodipodi:linespacing="125%">Powered by Microsoft’s Cognitive Services</text>
<text
     x="1071.1691"
     y="1043.7153"
     font-size="5px"
     font-weight="bold"
     style="font-style:normal;font-variant:normal;font-weight:normal;font-stretch:normal;font-size:66.81552887px;line-height:125%;font-family:'Helvetica Neue', Helvetica, Arial-Unicode, Arial, Sans-serif;-inkscape-font-specification:'Helvetica Neue, Helvetica, Arial-Unicode, Arial, Sans-serif, Normal';text-align:start;writing-mode:lr-tb;text-anchor:start;fill:#000000"
     id="text3361"
     transform="scale(0.91191118,1.096598)"
     sodipodi:linespacing="125%"> https://www.microsoft.com/cognitive-services</text>
</svg>